<?xml version="1.0" standalone="no"?>
<!DOCTYPE svg PUBLIC "-//W3C//DTD SVG 20010904//EN"
 "http://www.w3.org/TR/2001/REC-SVG-20010904/DTD/svg10.dtd">
<svg version="1.0" xmlns="http://www.w3.org/2000/svg"
 width="318.000000pt" height="159.000000pt" viewBox="0 0 318.000000 159.000000"
 preserveAspectRatio="xMidYMid meet">

<g transform="translate(0.000000,159.000000) scale(0.100000,-0.100000)"
fill="#000000" stroke="none">
<path d="M250 1362 c-59 -37 -96 -82 -134 -162 -26 -55 -31 -80 -34 -162 l-4
-98 51 0 51 0 0 58 c0 72 34 147 84 189 l37 30 -3 87 -3 87 -45 -29z"/>
<path d="M345 1367 c-4 -13 -5 -43 -3 -68 3 -39 6 -44 28 -44 24 0 25 2 25 65
0 59 -2 65 -22 68 -17 2 -24 -3 -28 -21z"/>
<path d="M434 1377 c-3 -8 -4 -39 -2 -68 3 -50 5 -54 28 -54 24 0 25 2 25 65
0 60 -2 65 -23 68 -12 2 -24 -3 -28 -11z"/>
<path d="M522 1378 c-13 -13 -16 -85 -6 -112 8 -21 50 -21 58 0 3 9 6 35 6 58
0 41 -13 66 -35 66 -6 0 -16 -5 -23 -12z"/>
<path d="M610 1303 l1 -88 38 -26 c51 -36 83 -103 89 -191 l5 -69 51 3 51 3 3
50 c5 67 -14 158 -45 218 -31 62 -99 135 -152 165 l-41 23 0 -88z"/>
<path d="M1409 1343 c-1 -43 -2 -45 -9 -18 l-8 30 -1 -27 c-1 -28 -21 -41 -21
-14 0 16 -86 28 -110 15 -9 -5 8 -9 43 -9 31 0 57 -4 57 -10 0 -6 -26 -10 -59
-10 -48 0 -60 3 -64 18 -4 16 -5 16 -6 0 -1 -24 -17 -23 -24 2 -3 11 -11 20
-19 19 -10 0 -10 -2 0 -6 17 -7 15 -33 -2 -33 -8 0 -17 10 -19 23 -4 22 -4 22
-6 -1 -1 -16 6 -26 19 -29 11 -3 17 -10 13 -17 -4 -6 1 -5 10 2 11 10 47 14
117 14 l100 -1 0 50 c0 63 -10 64 -11 2z"/>
<path d="M1443 1345 c0 -27 2 -38 4 -22 2 15 2 37 0 50 -2 12 -4 0 -4 -28z"/>
<path d="M1682 1348 c-2 -49 -15 -64 -25 -28 -3 11 -11 20 -19 19 -10 0 -10
-2 0 -6 17 -7 15 -33 -2 -33 -8 0 -17 10 -19 23 -4 22 -4 22 -6 -1 -1 -16 6
-26 19 -29 11 -3 17 -10 13 -17 -4 -6 1 -5 10 3 11 9 44 14 90 15 l72 1 1 50
1 50 -4 -47 c-2 -27 -8 -48 -13 -48 -5 0 -11 21 -13 48 l-3 47 -2 -47 c-1 -34
-6 -48 -16 -48 -9 0 -12 7 -9 20 3 11 0 20 -6 20 -6 0 -8 -8 -4 -17 6 -16 5
-16 -10 -4 -10 8 -20 11 -24 7 -3 -3 -1 -6 5 -6 7 0 12 -4 12 -10 0 -5 -9 -10
-19 -10 -16 0 -21 8 -24 48 l-3 47 -2 -47z"/>
<path d="M1962 1348 c-2 -48 11 -69 31 -49 9 9 8 11 -5 6 -14 -6 -17 1 -21 42
l-3 48 -2 -47z"/>
<path d="M2014 1340 c1 -41 3 -45 29 -47 26 -2 27 -1 25 50 l-2 52 -3 -50 c-3
-35 -7 -45 -13 -35 -7 10 -10 11 -10 3 0 -7 -4 -13 -9 -13 -6 0 -12 19 -14 43
l-4 42 1 -45z"/>
<path d="M2093 1345 c0 -27 2 -38 4 -22 2 15 2 37 0 50 -2 12 -4 0 -4 -28z"/>
<path d="M2430 1345 c0 -44 -12 -60 -24 -30 -7 20 -35 19 -42 0 -6 -14 -8 -14
-18 1 -8 10 -22 14 -41 11 l-30 -4 33 -2 c47 -2 39 -21 -9 -21 -24 0 -38 4
-34 10 3 6 1 10 -4 10 -6 0 -11 -4 -11 -10 0 -20 -19 -10 -23 13 -2 12 -4 5
-4 -16 0 -21 3 -33 7 -27 5 8 32 11 77 8 63 -3 69 -1 65 15 -3 11 1 17 12 17
14 0 20 -11 18 -31 -1 -4 8 -5 18 -2 17 4 20 14 20 54 0 27 -2 49 -5 49 -3 0
-5 -20 -5 -45z"/>
<path d="M2694 1340 l1 -45 58 -3 57 -3 -2 53 -2 53 -3 -47 c-4 -49 -26 -67
-36 -30 -4 16 -5 16 -6 0 -1 -13 -10 -18 -30 -18 -28 0 -30 3 -34 43 l-4 42 1
-45z"/>
<path d="M932 1339 l-2 -46 59 -2 60 -2 -16 31 c-16 33 -47 38 -49 7 -1 -12
-1 -13 3 -2 7 22 30 19 36 -5 4 -17 0 -20 -29 -20 -20 0 -34 5 -34 13 0 8 -3
7 -9 -3 -7 -10 -11 -1 -14 30 l-4 45 -1 -46z"/>
<path d="M1326 1363 c-6 -14 -5 -15 5 -6 7 7 10 15 7 18 -3 3 -9 -2 -12 -12z"/>
<path d="M1131 1334 c0 -11 3 -14 6 -6 3 7 2 16 -1 19 -3 4 -6 -2 -5 -13z"/>
<path d="M1554 1338 c-4 -6 -3 -8 4 -4 6 3 18 -1 26 -10 9 -8 16 -11 16 -5 0
17 -38 33 -46 19z"/>
<path d="M1881 1334 c0 -11 3 -14 6 -6 3 7 2 16 -1 19 -3 4 -6 -2 -5 -13z"/>
<path d="M1909 1324 c-4 -25 -2 -30 15 -32 12 0 16 2 9 6 -6 4 -13 18 -15 32
-4 24 -4 23 -9 -6z"/>
<path d="M1991 1334 c0 -11 3 -14 6 -6 3 7 2 16 -1 19 -3 4 -6 -2 -5 -13z"/>
<path d="M2161 1334 c0 -11 3 -14 6 -6 3 7 2 16 -1 19 -3 4 -6 -2 -5 -13z"/>
<path d="M2188 1320 c-3 -16 -1 -30 4 -30 4 0 8 14 8 30 0 17 -2 30 -4 30 -2
0 -6 -13 -8 -30z"/>
<path d="M2530 1345 c-1 -5 -2 -18 -1 -27 3 -26 -18 -22 -29 5 -6 15 -9 17 -9
6 -1 -26 20 -36 81 -37 32 0 62 -3 67 -6 5 -3 7 3 4 14 -7 25 12 26 26 3 6
-10 11 -13 11 -7 0 6 -7 18 -16 25 -14 11 -18 11 -29 -4 -7 -9 -18 -17 -26
-17 -10 0 -10 3 -1 12 17 17 15 28 -5 28 -14 0 -15 -2 -4 -9 8 -5 9 -11 3 -15
-6 -3 -13 -2 -17 4 -3 5 -11 10 -18 10 -6 0 -2 -7 9 -15 18 -14 18 -14 -8 -15
-22 0 -27 5 -31 28 -2 15 -5 23 -7 17z"/>
<path d="M2720 1341 c0 -5 9 -7 20 -4 11 3 20 7 20 9 0 2 -9 4 -20 4 -11 0
-20 -4 -20 -9z"/>
<path d="M1098 1328 c18 -18 14 -31 -8 -25 -11 3 -18 1 -14 -4 7 -13 64 -11
64 2 0 5 -4 8 -9 4 -5 -3 -12 4 -16 15 -3 11 -11 20 -18 20 -8 0 -8 -3 1 -12z"/>
<path d="M1466 1331 c-8 -12 4 -41 16 -41 6 0 5 6 -2 15 -6 8 -9 19 -5 25 3 5
4 10 1 10 -3 0 -7 -4 -10 -9z"/>
<path d="M1840 1323 c0 -6 7 -16 15 -23 13 -11 18 -11 28 0 10 10 9 11 -2 5
-9 -5 -19 -1 -28 10 -7 11 -13 14 -13 8z"/>
<path d="M1545 1301 c-8 -27 -4 -33 12 -16 6 6 7 18 3 25 -6 9 -10 7 -15 -9z"/>
<path d="M2140 1296 c7 -7 13 -7 20 0 6 6 3 10 -10 10 -13 0 -16 -4 -10 -10z"/>
<path d="M398 1199 c-47 -14 -113 -71 -138 -120 -30 -58 -27 -148 7 -210 83
-153 300 -155 389 -3 23 39 28 60 28 114 1 57 -3 73 -29 116 -54 86 -162 129
-257 103z"/>
<path d="M2276 1189 c-67 -18 -102 -89 -72 -147 10 -20 46 -49 102 -82 110
-67 131 -115 68 -157 -54 -35 -144 4 -163 71 -8 26 -9 19 -10 -39 0 -42 3 -65
8 -56 7 11 18 11 64 1 69 -16 117 -7 149 28 34 36 42 74 24 116 -11 27 -32 45
-94 80 -113 66 -135 96 -101 140 15 20 30 26 58 26 47 0 79 -23 102 -74 l19
-41 0 69 c0 59 -2 67 -15 56 -8 -6 -18 -9 -23 -6 -21 13 -90 22 -116 15z"/>
<path d="M2511 1143 c0 -36 2 -43 9 -28 13 33 35 46 82 48 l43 2 3 -174 c3
-181 0 -196 -41 -204 -12 -2 19 -4 68 -4 50 -1 81 1 70 4 -41 10 -45 29 -45
210 l0 173 33 0 c55 0 79 -11 93 -44 l13 -31 1 48 0 47 -165 0 -165 0 1 -47z"/>
<path d="M943 1168 c15 -5 29 -19 32 -31 3 -12 4 -96 3 -187 l-3 -165 -30 -6
c-16 -4 40 -7 127 -8 l156 -1 16 47 c9 25 14 49 11 51 -3 3 -5 1 -5 -5 0 -6
-13 -25 -29 -42 -27 -29 -33 -31 -104 -31 -88 0 -87 -1 -87 106 l0 75 67 -3
c59 -3 69 -6 79 -26 19 -38 21 -34 20 37 -1 38 -4 67 -8 64 -5 -2 -8 -11 -8
-18 0 -22 -34 -35 -94 -35 l-56 0 0 85 0 85 69 0 c86 0 100 -5 117 -44 l13
-31 1 48 0 47 -157 -1 c-118 0 -151 -3 -130 -11z"/>
<path d="M1555 1173 c43 -11 45 -18 45 -197 0 -94 -5 -178 -10 -186 -8 -12
-14 -9 -38 19 -31 37 -52 35 -52 -4 0 -51 76 -57 121 -9 23 24 24 33 27 187 2
89 8 167 13 174 6 6 20 14 32 16 12 2 -18 4 -68 4 -49 1 -81 -2 -70 -4z"/>
<path d="M1735 1173 c11 -3 25 -9 30 -14 6 -6 12 -80 15 -165 l5 -156 37 -34
c35 -31 43 -34 103 -34 135 0 158 34 163 240 3 119 6 147 20 158 13 10 7 12
-39 11 -42 0 -49 -2 -31 -9 21 -9 22 -13 22 -160 0 -149 0 -150 -27 -180 -48
-53 -148 -52 -183 3 -10 16 -15 64 -18 165 -4 151 -1 167 41 175 12 2 -18 4
-68 4 -49 1 -81 -1 -70 -4z"/>
<path d="M1303 910 c1 -18 8 -20 74 -20 66 0 73 2 73 20 0 18 -7 20 -74 20
-69 0 -75 -2 -73 -20z"/>
<path d="M76 864 c-19 -50 9 -208 51 -285 48 -90 140 -155 258 -185 l25 -6 0
84 0 84 -52 17 c-29 9 -70 30 -90 47 -37 31 -98 138 -98 172 0 17 3 17 33 -6
38 -29 107 -60 115 -52 3 3 0 6 -7 6 -19 0 -98 78 -111 110 -12 28 -16 30 -65
30 -39 0 -54 -4 -59 -16z"/>
<path d="M724 845 c-9 -20 -35 -51 -57 -70 -52 -45 -37 -45 37 0 l58 35 -7
-28 c-25 -105 -109 -192 -207 -216 -28 -6 -28 -7 -28 -91 l0 -85 28 6 c43 10
133 52 169 80 83 63 133 183 133 320 l0 84 -55 0 c-52 0 -55 -1 -71 -35z"/>
<path d="M1910 665 c-7 -9 -8 -15 -2 -15 5 0 12 7 16 15 3 8 4 15 2 15 -2 0
-9 -7 -16 -15z"/>
<path d="M2370 649 c0 -17 -4 -28 -10 -24 -5 3 -10 1 -10 -4 0 -6 7 -11 15
-11 10 0 15 11 15 35 0 19 -2 35 -5 35 -3 0 -5 -14 -5 -31z"/>
<path d="M928 640 c-3 -16 -1 -30 4 -30 4 0 8 14 8 30 0 17 -2 30 -4 30 -2 0
-6 -13 -8 -30z"/>
<path d="M1231 648 c0 -14 -7 -29 -13 -31 -10 -4 -10 -6 0 -6 16 -1 25 22 19
46 -3 12 -5 9 -6 -9z"/>
<path d="M1454 640 c1 -18 7 -25 21 -25 14 0 20 7 21 25 1 22 0 22 -3 3 -2
-13 -10 -23 -18 -23 -8 0 -16 10 -18 23 -3 19 -4 19 -3 -3z"/>
<path d="M2430 640 c0 -16 4 -30 8 -30 5 0 7 14 4 30 -2 17 -6 30 -8 30 -2 0
-4 -13 -4 -30z"/>
<path d="M986 653 c-14 -15 -4 -39 22 -50 l27 -13 -22 19 c-13 11 -23 25 -23
33 0 10 3 9 10 -2 6 -9 10 -10 10 -3 0 15 -15 25 -24 16z"/>
<path d="M1103 654 c-7 -3 -9 -12 -6 -20 3 -8 0 -14 -5 -14 -6 0 -13 8 -15 18
-3 9 -5 2 -6 -15 -1 -32 0 -32 19 -16 11 10 20 24 21 33 1 8 5 4 9 -10 l8 -25
1 28 c1 27 -3 30 -26 21z"/>
<path d="M1256 653 c-3 -3 0 -13 7 -21 9 -13 9 -14 0 -8 -7 4 -13 2 -13 -3 0
-6 7 -11 15 -11 8 0 15 9 15 19 0 21 -13 34 -24 24z"/>
<path d="M1303 653 c-16 -6 -17 -63 -2 -63 5 0 8 4 5 9 -3 5 1 11 9 15 28 10
15 49 -12 39z m13 -30 c-10 -10 -19 5 -10 18 6 11 8 11 12 0 2 -7 1 -15 -2
-18z"/>
<path d="M1346 651 c-4 -5 -1 -13 5 -17 8 -4 7 -9 -2 -15 -10 -6 -6 -9 14 -9
22 0 27 4 26 23 0 21 -1 21 -9 2 -7 -16 -9 -17 -9 -3 -1 20 -17 32 -25 19z"/>
<path d="M1400 635 c0 -14 4 -25 9 -25 4 0 6 11 3 25 -2 14 -6 25 -8 25 -2 0
-4 -11 -4 -25z"/>
<path d="M1520 649 c-13 -9 -12 -10 3 -5 12 4 17 0 18 -17 1 -18 2 -19 6 -3 6
24 -8 38 -27 25z"/>
<path d="M1633 644 c-3 -8 -1 -20 5 -26 8 -8 9 -4 5 12 -5 17 -3 21 7 15 9 -5
11 -4 6 3 -10 16 -15 15 -23 -4z"/>
<path d="M1707 653 c-11 -11 -8 -21 9 -27 13 -5 14 -4 6 7 -7 8 -9 17 -5 20 3
4 4 7 1 7 -2 0 -8 -3 -11 -7z"/>
<path d="M1760 641 c0 -11 3 -22 8 -24 4 -3 7 6 7 19 0 13 -3 24 -7 24 -5 0
-8 -9 -8 -19z"/>
<path d="M1877 641 c5 -21 -11 -30 -20 -11 -3 6 -4 5 -3 -2 1 -6 8 -14 14 -16
16 -5 27 27 14 40 -8 8 -9 5 -5 -11z"/>
<path d="M1960 651 c0 -5 7 -12 16 -15 14 -5 15 -4 4 9 -14 17 -20 19 -20 6z"/>
<path d="M2074 645 c-7 -17 3 -35 19 -34 9 0 9 2 0 6 -7 2 -13 11 -13 19 0 9
5 12 12 8 7 -4 8 -3 4 4 -10 16 -15 15 -22 -3z"/>
<path d="M2206 652 c-3 -5 1 -9 9 -9 8 0 12 4 9 9 -3 4 -7 8 -9 8 -2 0 -6 -4
-9 -8z"/>
<path d="M2266 653 c-3 -3 0 -13 7 -21 9 -13 9 -14 0 -8 -7 4 -13 2 -13 -3 0
-6 11 -11 25 -11 19 0 25 5 24 23 0 21 -1 21 -9 2 -7 -16 -9 -17 -9 -3 -1 19
-15 31 -25 21z"/>
<path d="M2550 650 c0 -6 4 -9 9 -5 5 3 12 -5 14 -17 5 -22 5 -21 4 1 -2 24
-27 44 -27 21z"/>
<path d="M2656 646 c4 -11 2 -21 -7 -27 -10 -6 -11 -9 -1 -9 18 0 27 29 13 43
-9 9 -11 8 -5 -7z"/>
<path d="M2713 649 c-6 -6 -9 -18 -6 -25 6 -16 33 -19 33 -4 0 6 -4 9 -9 8 -5
-2 -8 2 -7 7 0 6 5 9 9 7 5 -1 6 2 2 8 -8 13 -9 12 -22 -1z"/>
<path d="M1030 645 c0 -5 5 -17 10 -25 5 -8 10 -10 10 -5 0 6 -5 17 -10 25 -5
8 -10 11 -10 5z"/>
<path d="M1562 630 c0 -14 2 -19 5 -12 2 6 2 18 0 25 -3 6 -5 1 -5 -13z"/>
<path d="M1590 645 c0 -5 5 -17 10 -25 5 -8 10 -10 10 -5 0 6 -5 17 -10 25 -5
8 -10 11 -10 5z"/>
<path d="M1672 630 c0 -14 2 -19 5 -12 2 6 2 18 0 25 -3 6 -5 1 -5 -13z"/>
<path d="M1742 630 c0 -14 2 -19 5 -12 2 6 2 18 0 25 -3 6 -5 1 -5 -13z"/>
<path d="M1791 645 c0 -5 3 -16 8 -23 7 -11 9 -10 14 3 4 9 3 14 -2 10 -5 -3
-12 1 -14 7 -3 7 -6 9 -6 3z"/>
<path d="M2003 636 c1 -11 9 -21 17 -23 10 -3 11 -2 4 4 -6 4 -14 15 -17 23
-5 11 -6 9 -4 -4z"/>
<path d="M2052 630 c0 -14 2 -19 5 -12 2 6 2 18 0 25 -3 6 -5 1 -5 -13z"/>
<path d="M2112 630 c0 -14 2 -19 5 -12 2 6 2 18 0 25 -3 6 -5 1 -5 -13z"/>
<path d="M2463 636 c1 -11 9 -21 17 -23 10 -3 11 -2 4 4 -6 4 -14 15 -17 23
-5 11 -6 9 -4 -4z"/>
<path d="M2503 636 c1 -11 9 -21 17 -23 10 -3 11 -2 4 4 -6 4 -14 15 -17 23
-5 11 -6 9 -4 -4z"/>
<path d="M2592 630 c0 -14 2 -19 5 -12 2 6 2 18 0 25 -3 6 -5 1 -5 -13z"/>
<path d="M2754 622 c3 -27 20 -40 30 -23 4 6 -2 19 -13 30 -19 19 -19 19 -17
-7z"/>
<path d="M2801 645 c0 -5 3 -16 8 -23 7 -11 9 -10 14 3 4 9 3 14 -2 10 -5 -3
-12 1 -14 7 -3 7 -6 9 -6 3z"/>
<path d="M2160 618 c0 -4 4 -8 9 -8 6 0 12 4 15 8 3 5 -1 9 -9 9 -8 0 -15 -4
-15 -9z"/>
<path d="M2200 620 c0 -5 5 -10 11 -10 5 0 7 5 4 10 -3 6 -8 10 -11 10 -2 0
-4 -4 -4 -10z"/>
<path d="M1968 613 c7 -3 16 -2 19 1 4 3 -2 6 -13 5 -11 0 -14 -3 -6 -6z"/>
<path d="M1191 521 c-9 -6 -10 -11 -2 -15 6 -4 11 -2 11 4 0 6 5 8 10 5 6 -3
10 -1 10 4 0 13 -10 14 -29 2z"/>
<path d="M1381 514 c0 -11 3 -14 6 -6 3 7 2 16 -1 19 -3 4 -6 -2 -5 -13z"/>
<path d="M1458 458 c2 -38 5 -68 7 -66 9 9 9 128 0 132 -6 2 -9 -21 -7 -66z"/>
<path d="M1791 518 c-1 -13 -10 -18 -33 -19 l-33 -1 29 -7 30 -6 -35 -39 c-26
-30 -29 -37 -12 -27 13 6 28 21 35 34 12 21 13 19 19 -23 l6 -45 2 40 c2 51 9
62 46 68 28 4 27 4 -7 6 -26 1 -38 6 -41 19 -4 16 -5 16 -6 0z"/>
<path d="M1920 520 c-8 -5 -11 -12 -8 -16 4 -3 1 -21 -7 -40 -11 -27 -11 -32
0 -28 9 4 15 -4 18 -23 4 -27 4 -27 6 5 0 18 6 32 14 32 8 0 7 4 -3 10 -12 8
-13 11 -1 19 11 7 11 9 0 13 -12 4 -12 7 0 21 15 18 5 22 -19 7z"/>
<path d="M1989 487 c-2 -24 -1 -57 2 -73 6 -25 7 -26 8 -5 0 13 9 30 19 38 16
14 16 14 -2 9 -16 -5 -18 -1 -14 34 2 22 0 40 -3 40 -4 0 -9 -19 -10 -43z"/>
<path d="M2076 519 c3 -10 -1 -19 -10 -22 -9 -4 -16 -12 -16 -19 0 -10 2 -10
9 1 6 10 25 12 69 9 34 -2 59 -1 56 4 -3 4 -12 8 -21 8 -13 0 -13 3 -3 15 7 9
8 15 2 15 -5 0 -12 -7 -16 -15 -7 -20 -46 -19 -62 3 -12 14 -13 14 -8 1z"/>
<path d="M2105 520 c3 -5 8 -10 11 -10 2 0 4 5 4 10 0 6 -5 10 -11 10 -5 0 -7
-4 -4 -10z"/>
<path d="M2231 518 c0 -10 -7 -18 -13 -18 -9 0 -8 -4 2 -10 13 -8 13 -13 2
-31 -10 -15 -10 -19 -1 -14 8 6 10 -1 7 -24 -5 -32 -4 -33 26 -26 44 9 58 9
81 1 18 -6 18 -5 -2 9 -21 16 -21 18 -6 41 14 23 14 24 -5 24 -18 0 -20 5 -17
30 2 17 -1 30 -6 30 -5 0 -9 -13 -9 -30 0 -20 -5 -30 -15 -30 -13 0 -13 -2 -3
-14 8 -9 15 -10 19 -4 4 6 12 9 19 6 16 -5 -34 -58 -56 -58 -21 0 -17 88 5 93
14 4 14 5 -1 6 -9 0 -19 9 -21 19 -4 16 -5 16 -6 0z"/>
<path d="M2379 513 c-13 -17 -13 -17 6 -3 11 8 22 16 24 17 2 2 0 3 -6 3 -6 0
-17 -8 -24 -17z"/>
<path d="M2432 503 c-1 -18 -6 -33 -12 -33 -5 0 -10 -9 -10 -19 0 -11 -4 -23
-10 -26 -16 -10 -11 42 6 59 12 12 12 16 2 16 -22 0 -34 -32 -28 -75 l5 -40
18 25 c9 13 18 31 18 40 1 8 5 -3 9 -25 l7 -40 2 40 c2 37 3 39 16 21 8 -11
15 -15 15 -9 0 6 -6 16 -14 23 -8 6 -17 26 -19 43 l-4 32 -1 -32z"/>
<path d="M2591 513 c-1 -17 -9 -23 -33 -26 l-33 -4 33 -1 c30 -2 33 -5 27 -24
-4 -13 -19 -34 -33 -47 -25 -22 -25 -23 -3 -9 14 8 30 23 35 33 19 33 32 43
62 48 26 4 25 4 -8 6 -29 1 -37 5 -41 24 -4 22 -4 22 -6 0z"/>
<path d="M2716 518 c3 -10 2 -18 -4 -18 -5 0 -13 -7 -16 -16 -5 -14 -4 -15 9
-4 10 8 34 11 70 8 30 -3 55 -1 55 4 0 4 -10 8 -21 8 -18 0 -19 2 -9 15 7 9 8
15 2 15 -5 0 -12 -7 -16 -15 -7 -20 -46 -19 -62 3 -13 16 -14 16 -8 0z"/>
<path d="M1603 460 c0 -36 2 -50 4 -32 4 26 9 32 29 32 20 0 24 -5 24 -31 0
-17 4 -28 10 -24 6 3 10 28 10 55 0 27 -4 52 -10 55 -6 4 -10 -5 -10 -19 0
-21 -5 -26 -24 -26 -19 0 -26 6 -29 28 -2 15 -4 -2 -4 -38z"/>
<path d="M2478 513 c6 -2 18 -2 25 0 6 3 1 5 -13 5 -14 0 -19 -2 -12 -5z"/>
<path d="M1125 500 c3 -5 11 -10 16 -10 6 0 7 5 4 10 -3 6 -11 10 -16 10 -6 0
-7 -4 -4 -10z"/>
<path d="M1334 476 c-5 -17 -24 -41 -43 -53 -19 -13 -29 -23 -24 -23 18 0 60
39 81 73 13 22 15 34 7 34 -6 0 -16 -14 -21 -31z"/>
<path d="M1020 490 c0 -5 5 -10 10 -10 6 0 10 5 10 10 0 6 -4 10 -10 10 -5 0
-10 -4 -10 -10z"/>
<path d="M1254 492 c5 -8 76 -4 76 4 0 2 -18 4 -41 4 -22 0 -38 -4 -35 -8z"/>
<path d="M963 483 c31 -5 38 -39 10 -46 -10 -3 7 -4 37 -4 31 0 41 2 23 4 -27
4 -33 9 -33 29 0 21 -4 24 -32 23 -31 -2 -31 -2 -5 -6z"/>
<path d="M1181 455 c-24 -19 -50 -35 -58 -35 -8 0 -11 -5 -8 -10 8 -13 29 -1
80 44 51 45 43 46 -14 1z"/>
<path d="M1105 470 c3 -5 11 -10 16 -10 6 0 7 5 4 10 -3 6 -11 10 -16 10 -6 0
-7 -4 -4 -10z"/>
<path d="M2128 460 c-9 -13 -25 -21 -48 -22 l-35 -1 33 -4 c28 -4 33 -8 29
-24 -3 -10 -1 -19 5 -19 5 0 12 9 15 20 4 14 14 20 34 20 16 0 29 4 29 10 0 5
-13 7 -30 4 -18 -4 -30 -2 -30 4 0 6 8 12 18 14 12 2 13 6 5 11 -8 5 -17 0
-25 -13z"/>
<path d="M2467 472 c6 -4 13 -25 16 -47 l4 -40 1 42 c1 23 8 44 15 46 6 3 -1
6 -18 6 -17 0 -25 -3 -18 -7z"/>
<path d="M2768 461 c-8 -11 -29 -21 -48 -24 l-35 -4 39 -1 c33 -2 38 -5 33
-22 -3 -11 -1 -20 4 -20 5 0 9 9 9 20 0 16 7 20 30 20 17 0 30 4 30 8 0 5 -15
7 -32 5 -30 -4 -31 -3 -15 10 19 16 22 27 8 27 -6 0 -16 -9 -23 -19z"/>
<path d="M1500 455 c7 -8 17 -15 22 -15 6 0 5 7 -2 15 -7 8 -17 15 -22 15 -6
0 -5 -7 2 -15z"/>
<path d="M1814 452 c0 -9 12 -20 25 -24 33 -10 33 -7 1 19 -24 20 -28 20 -26
5z"/>
<path d="M2610 442 c0 -13 37 -45 48 -41 5 2 -4 14 -20 27 -15 13 -28 19 -28
14z"/>
<path d="M927 429 c7 -7 15 -10 18 -7 3 3 -2 9 -12 12 -14 6 -15 5 -6 -5z"/>
</g>
</svg>
