<?xml version="1.0" standalone="no"?>
<!DOCTYPE svg PUBLIC "-//W3C//DTD SVG 20010904//EN"
 "http://www.w3.org/TR/2001/REC-SVG-20010904/DTD/svg10.dtd">
<svg version="1.0" xmlns="http://www.w3.org/2000/svg"
 width="1406.000000pt" height="1406.000000pt" viewBox="0 0 1406.000000 1406.000000"
 preserveAspectRatio="xMidYMid meet">

<g transform="translate(0.000000,1406.000000) scale(0.100000,-0.100000)"
fill="#000000" stroke="none">
<path d="M6172 13734 c-18 -10 -48 -38 -65 -63 l-32 -46 -3 -371 -3 -370 31
-42 c48 -67 96 -87 215 -87 88 0 105 3 138 23 20 13 50 40 65 60 l27 35 0 366
c0 419 0 419 -85 476 -42 28 -52 30 -150 33 -82 2 -112 -1 -138 -14z"/>
<path d="M6784 13732 c-17 -11 -45 -41 -62 -68 l-32 -48 1 -365 c1 -398 1
-406 58 -454 44 -36 100 -50 196 -45 71 3 87 7 125 33 79 55 75 32 73 461 -1
297 -4 389 -15 410 -7 15 -35 41 -63 58 -46 28 -59 31 -150 34 -85 2 -105 0
-131 -16z"/>
<path d="M7394 13724 c-96 -50 -89 -11 -92 -463 -2 -243 1 -408 7 -424 6 -14
29 -37 53 -51 35 -20 61 -26 143 -31 96 -6 102 -5 150 22 27 15 60 43 72 62
23 34 23 35 23 408 0 414 0 415 -64 471 -36 32 -38 32 -140 32 -91 0 -109 -3
-152 -26z"/>
<path d="M5658 13700 c-15 -4 -40 -17 -55 -28 -15 -10 -46 -25 -68 -32 -46
-14 -141 -65 -170 -91 -11 -9 -51 -38 -90 -65 -75 -51 -237 -188 -309 -261
-63 -64 -159 -173 -169 -191 -7 -11 -32 -47 -57 -79 -25 -32 -66 -94 -90 -138
-24 -44 -53 -93 -65 -110 -29 -42 -150 -289 -170 -350 -9 -27 -26 -77 -37
-110 -11 -33 -30 -89 -43 -125 -13 -36 -27 -85 -31 -109 -3 -24 -17 -66 -30
-95 -12 -28 -27 -87 -33 -132 -6 -44 -19 -116 -30 -160 -31 -122 -65 -622 -58
-849 5 -166 7 -181 26 -196 31 -25 174 -33 470 -26 213 5 257 9 270 22 14 13
17 65 22 358 5 312 7 348 27 407 11 36 26 94 32 130 6 36 20 79 30 95 10 17
25 56 33 87 8 31 24 69 35 85 10 15 25 45 31 65 7 21 17 40 22 44 5 3 20 27
34 54 28 54 83 140 101 155 6 6 47 51 89 100 43 50 86 98 95 107 10 10 24 26
32 37 7 10 40 37 73 60 126 86 140 98 157 130 16 31 17 87 17 610 0 514 -2
577 -16 593 -17 19 -33 21 -75 8z"/>
<path d="M8136 13694 c-9 -8 -16 -23 -16 -32 -5 -273 3 -1189 11 -1203 5 -11
25 -27 43 -37 54 -28 128 -84 182 -137 27 -28 79 -75 113 -105 35 -30 70 -67
78 -83 8 -16 30 -49 49 -74 19 -24 34 -50 34 -57 0 -7 9 -21 19 -30 11 -10 27
-39 35 -64 9 -25 23 -54 32 -64 20 -21 58 -108 86 -193 11 -33 30 -85 43 -115
14 -33 26 -85 30 -130 3 -41 12 -111 20 -155 31 -175 34 -337 9 -571 l-6 -62
38 -13 c29 -9 122 -12 369 -11 182 2 338 5 348 8 30 9 40 45 45 162 7 172 -16
618 -38 742 -11 58 -24 157 -30 219 -10 108 -17 137 -85 346 -9 28 -25 79 -36
115 -10 36 -27 81 -37 100 -11 19 -25 57 -31 84 -7 27 -23 68 -35 90 -13 23
-26 63 -30 90 -4 31 -17 63 -36 89 -16 23 -30 45 -30 51 0 5 -9 19 -20 31 -22
24 -90 133 -90 145 0 5 -15 27 -34 49 -19 23 -55 72 -80 110 -25 37 -67 91
-93 118 -27 28 -68 72 -93 99 -105 113 -263 250 -335 290 -16 9 -45 30 -63 45
-18 16 -38 29 -45 29 -7 0 -32 14 -56 30 -24 17 -51 30 -60 30 -9 0 -35 10
-56 21 -124 66 -126 67 -149 43z"/>
<path d="M6675 12424 c-27 -7 -90 -24 -140 -35 -143 -34 -337 -116 -429 -181
-21 -16 -45 -28 -52 -28 -22 0 -217 -170 -312 -274 -108 -116 -155 -185 -238
-346 -73 -141 -104 -225 -145 -400 -32 -132 -32 -140 -33 -380 -1 -219 1 -249
18 -285 10 -22 24 -86 31 -142 10 -75 19 -109 34 -129 12 -15 27 -48 35 -74 8
-26 39 -90 70 -141 31 -52 56 -100 56 -107 0 -7 22 -37 48 -65 27 -29 60 -68
73 -88 29 -42 220 -223 266 -251 17 -10 38 -30 47 -42 14 -23 195 -125 247
-141 27 -8 159 -64 234 -100 28 -13 79 -26 115 -30 36 -4 92 -16 125 -26 46
-14 100 -19 225 -21 148 -3 172 -1 230 19 36 12 92 27 125 33 103 18 163 37
228 72 34 19 75 38 90 42 16 4 51 22 79 41 28 19 54 35 58 35 29 0 223 142
238 174 6 13 36 43 68 66 62 47 98 83 177 180 74 90 181 257 197 305 7 22 23
58 35 80 12 22 28 62 34 89 7 27 19 62 26 77 8 15 19 72 25 126 6 54 17 131
25 172 17 82 19 225 5 286 -5 22 -16 86 -24 142 -8 55 -26 132 -39 170 -13 37
-27 86 -31 108 -4 22 -18 58 -30 80 -13 22 -26 54 -29 72 -4 18 -22 53 -42 78
-19 26 -35 51 -35 56 0 9 -50 80 -152 218 -38 51 -45 59 -157 164 -80 75 -203
167 -223 167 -6 0 -37 18 -69 39 -32 21 -91 51 -131 66 -40 15 -91 38 -113 50
-22 13 -74 30 -115 39 -41 9 -106 25 -145 36 -60 16 -104 19 -300 19 -169 0
-243 -4 -280 -15z"/>
<path d="M4182 10105 c-37 -16 -39 -27 -53 -212 -14 -195 5 -689 31 -808 5
-22 14 -96 20 -165 7 -74 22 -153 35 -195 13 -38 27 -97 30 -130 4 -33 17 -87
30 -120 13 -33 29 -80 34 -105 6 -25 22 -67 36 -94 14 -27 25 -56 25 -63 0 -8
11 -36 25 -63 13 -26 29 -70 35 -97 6 -26 17 -54 25 -63 7 -8 26 -42 42 -75
59 -119 74 -145 114 -202 22 -32 51 -80 64 -108 13 -27 50 -80 82 -117 32 -37
86 -100 120 -140 87 -101 85 -99 132 -138 24 -19 82 -70 129 -113 48 -42 107
-87 130 -98 24 -12 94 -56 155 -97 62 -41 144 -88 182 -103 155 -60 181 -71
211 -90 17 -10 55 -24 85 -30 30 -6 70 -20 90 -29 19 -10 64 -24 99 -30 35 -6
81 -20 103 -31 35 -19 89 -27 270 -43 104 -9 97 -50 99 562 2 290 3 548 2 575
0 28 -6 53 -14 62 -16 15 -174 59 -255 70 -27 4 -70 17 -95 29 -25 13 -67 28
-95 35 -27 7 -66 23 -85 36 -19 12 -52 28 -72 34 -20 7 -42 18 -48 26 -6 8
-28 19 -48 26 -20 6 -55 25 -76 40 -22 16 -44 29 -48 29 -4 0 -29 16 -55 35
-27 19 -66 47 -87 62 -83 59 -305 295 -361 386 -17 27 -45 66 -62 88 -18 23
-33 49 -33 60 0 10 -13 33 -29 51 -15 18 -37 51 -48 73 -10 22 -24 49 -30 60
-31 54 -74 167 -88 228 -9 37 -24 89 -34 115 -10 26 -21 71 -25 101 -4 30 -14
70 -22 89 -27 66 -16 102 32 102 8 0 43 -29 77 -64 34 -35 78 -71 97 -81 19
-10 46 -29 61 -44 14 -14 54 -42 88 -61 34 -19 78 -47 98 -62 20 -16 41 -28
48 -28 7 0 30 -12 51 -26 21 -15 70 -35 109 -46 38 -11 80 -26 92 -34 26 -16
135 -44 177 -44 l29 0 -27 21 c-14 11 -26 26 -26 33 0 7 -41 46 -91 87 -114
93 -257 224 -287 264 -12 16 -62 71 -111 120 -48 50 -100 113 -116 140 -33 60
-93 153 -114 178 -9 10 -39 62 -66 115 -72 139 -47 131 -441 130 -232 -1 -330
-5 -352 -13z"/>
<path d="M8919 10080 c-27 -26 -39 -49 -48 -88 -6 -29 -22 -70 -36 -90 -14
-20 -25 -42 -25 -49 0 -6 -29 -46 -65 -88 -36 -42 -65 -81 -65 -85 0 -5 -16
-25 -35 -46 -19 -20 -35 -42 -35 -49 0 -6 -35 -45 -78 -86 -43 -41 -115 -114
-159 -164 -44 -49 -100 -101 -123 -115 -42 -25 -112 -80 -162 -125 -15 -14
-38 -29 -52 -35 -28 -10 -35 -44 -12 -53 16 -6 61 4 92 21 40 23 204 83 249
91 25 5 56 18 68 29 12 11 52 34 88 51 37 17 102 57 145 88 44 31 101 68 128
82 28 15 63 44 80 68 40 54 92 97 111 89 29 -11 12 -213 -25 -286 -10 -19 -21
-51 -25 -70 -4 -19 -13 -48 -20 -65 -7 -16 -23 -64 -36 -105 -12 -41 -31 -87
-41 -102 -10 -15 -24 -42 -30 -60 -10 -30 -45 -87 -95 -158 -10 -14 -26 -42
-35 -63 -24 -53 -61 -101 -149 -192 -43 -44 -105 -110 -139 -147 -34 -36 -75
-72 -92 -79 -17 -7 -51 -32 -76 -57 -52 -50 -136 -106 -202 -134 -25 -11 -52
-26 -62 -34 -9 -9 -42 -22 -74 -31 -32 -8 -70 -25 -85 -37 -15 -13 -45 -26
-67 -30 -22 -3 -64 -17 -93 -31 -30 -14 -65 -25 -78 -25 -12 0 -60 -11 -105
-24 -44 -14 -94 -27 -109 -31 -18 -3 -31 -15 -38 -32 -6 -18 -9 -227 -8 -590
2 -606 -1 -578 52 -596 27 -10 263 20 297 38 16 8 58 22 94 30 35 8 88 26 117
40 30 14 63 25 74 25 11 0 40 10 65 21 25 12 72 28 105 35 32 8 66 21 75 29 8
7 38 23 65 35 28 12 59 29 70 39 11 10 36 24 55 31 35 14 55 27 131 88 23 17
46 32 52 32 18 0 110 62 148 99 19 20 77 72 128 116 51 44 118 112 150 150 32
39 78 90 102 115 43 44 70 85 108 165 10 22 26 47 35 54 10 8 24 30 31 48 8
19 35 61 60 94 50 65 65 97 65 133 0 13 13 47 28 77 16 30 32 69 35 87 4 18
16 45 27 60 12 16 28 55 36 87 9 33 24 75 34 95 10 20 23 61 29 92 5 32 19 74
29 95 11 21 22 72 26 113 4 41 18 122 31 180 13 58 28 170 34 250 7 80 19 208
28 285 25 225 5 677 -32 714 -14 14 -58 16 -373 16 l-357 0 -36 -35z"/>
<path d="M8768 5830 c-94 -26 -173 -75 -256 -161 -62 -63 -73 -80 -82 -126
-14 -64 -14 -174 -2 -269 11 -84 46 -136 148 -224 103 -88 126 -106 174 -129
25 -12 66 -34 91 -49 26 -15 67 -38 90 -51 24 -13 54 -33 67 -44 12 -11 38
-30 57 -41 19 -12 58 -35 87 -52 53 -32 136 -111 155 -149 6 -11 16 -50 23
-86 11 -57 11 -72 -3 -112 -23 -68 -83 -135 -132 -148 -22 -6 -53 -20 -70 -32
-27 -20 -42 -22 -155 -22 -105 0 -129 3 -152 18 -15 10 -48 25 -73 33 -66 19
-157 82 -190 131 -16 23 -38 70 -50 104 -21 67 -37 82 -54 51 -15 -28 -19
-338 -4 -353 9 -9 21 -9 56 0 54 15 146 2 227 -34 81 -35 214 -50 344 -37 77
8 113 16 133 30 16 11 45 24 66 30 64 18 156 108 202 197 l40 78 0 126 c0 124
-1 127 -35 196 -19 39 -47 85 -62 103 -16 18 -28 36 -28 41 0 16 -104 91 -127
91 -22 0 -187 92 -288 160 -22 15 -51 31 -65 36 -105 38 -213 121 -266 205
-13 21 -33 43 -44 49 -17 9 -20 21 -20 79 0 58 4 74 30 113 93 141 189 182
373 161 84 -10 93 -13 171 -66 88 -60 138 -115 172 -188 12 -26 27 -49 32 -53
6 -3 18 -29 27 -56 9 -28 21 -50 26 -50 14 0 22 46 15 88 -3 20 -10 87 -16
147 -17 199 -22 209 -94 185 -42 -13 -76 -6 -143 32 -94 53 -291 77 -395 48z"/>
<path d="M3093 5810 c-183 -4 -255 -8 -265 -17 -19 -20 2 -33 76 -45 76 -13
78 -15 107 -117 17 -60 19 -102 18 -481 -1 -228 -4 -476 -8 -551 -3 -75 -4
-149 -1 -164 3 -16 3 -70 0 -121 l-6 -94 -44 -45 c-29 -30 -56 -47 -80 -51
-19 -4 -44 -11 -54 -17 -19 -9 -19 -10 0 -24 16 -11 111 -13 595 -9 320 3 586
9 600 15 35 13 66 50 83 99 9 24 25 57 37 74 23 32 35 105 21 126 -11 17 -40
5 -47 -19 -4 -11 -40 -54 -82 -96 l-75 -75 -79 -10 c-114 -14 -588 -6 -616 9
-29 17 -35 102 -31 446 3 225 5 269 18 278 9 6 115 8 270 7 251 -3 256 -3 290
-27 19 -13 47 -35 62 -49 l26 -24 13 23 c20 36 25 248 6 273 -19 26 -43 15
-63 -28 -10 -20 -33 -43 -57 -57 -45 -25 -50 -25 -339 -21 -173 2 -190 4 -208
22 -19 19 -20 33 -20 315 0 230 3 303 14 329 l14 33 108 6 c60 2 197 4 304 3
l195 -1 53 -31 c30 -17 65 -48 78 -68 14 -20 29 -36 35 -36 5 0 19 -15 30 -32
l21 -33 -7 40 c-4 22 -10 77 -14 122 -4 45 -13 89 -20 97 -7 8 -31 18 -54 21
-61 8 -610 11 -904 5z"/>
<path d="M6652 5810 c-244 -6 -285 -12 -268 -38 3 -5 27 -12 54 -15 79 -9 100
-24 117 -80 31 -105 35 -169 33 -612 -1 -422 0 -457 20 -569 22 -121 33 -144
109 -250 48 -66 84 -96 164 -136 110 -55 172 -65 394 -64 l190 1 86 41 c48 22
109 56 135 75 105 76 180 203 195 330 5 40 15 119 22 177 11 81 13 199 9 515
l-5 410 31 67 c28 63 33 67 74 78 23 5 56 14 72 18 16 4 31 13 34 20 8 24 -52
32 -238 32 -186 0 -245 -8 -238 -33 2 -6 31 -21 64 -32 79 -27 80 -28 93 -82
15 -66 22 -819 9 -1013 -9 -137 -13 -163 -39 -222 -16 -36 -29 -73 -29 -80 0
-15 -39 -54 -108 -106 -113 -88 -382 -132 -500 -82 -26 10 -65 24 -87 29 -22
6 -65 31 -96 55 -47 37 -60 54 -75 98 -9 29 -27 71 -38 93 -21 39 -21 51 -21
626 l0 586 29 41 c24 35 39 45 97 64 38 12 69 26 69 30 0 4 -3 8 -7 8 -5 0
-28 6 -53 13 -33 9 -111 11 -298 7z"/>
<path d="M10213 5810 c-330 -5 -364 -7 -380 -23 -25 -25 -32 -202 -9 -232 16
-20 16 -20 34 1 9 12 25 36 34 53 12 22 37 41 81 62 64 29 65 30 222 27 157
-3 158 -3 177 -29 19 -25 20 -47 18 -708 -1 -651 -2 -684 -21 -746 -20 -67
-39 -88 -92 -100 -28 -7 -43 -22 -34 -32 8 -7 527 -14 550 -7 21 7 22 30 1 38
-9 3 -33 6 -54 6 -33 0 -43 6 -69 39 -63 79 -60 44 -62 805 -1 652 0 698 17
717 15 17 31 19 174 19 199 0 245 -12 313 -81 26 -27 57 -49 69 -49 19 0 20 5
16 95 -3 82 -6 97 -26 117 -24 25 13 22 -454 31 -79 1 -306 0 -505 -3z"/>
<path d="M5611 5798 c-22 -8 -23 -10 -9 -24 8 -8 39 -21 69 -29 57 -15 89 -43
114 -101 11 -25 14 -160 16 -713 l1 -681 -34 -57 c-33 -57 -35 -58 -82 -61
-43 -3 -51 0 -80 31 -17 19 -37 53 -44 75 -14 46 -73 102 -109 102 -68 0 -98
-45 -91 -135 8 -94 59 -140 173 -156 92 -13 186 2 238 38 83 57 161 157 173
220 4 21 16 63 28 93 20 53 21 79 26 635 5 519 7 585 23 625 23 58 41 77 84
85 42 8 83 25 83 36 0 4 -15 12 -32 18 -40 13 -513 12 -547 -1z"/>
<path d="M4501 4714 c-12 -15 -21 -35 -21 -45 0 -22 26 -49 48 -50 9 0 141 -1
292 -2 252 -2 276 -1 292 15 20 20 23 59 8 89 -10 18 -24 19 -305 19 l-294 0
-20 -26z"/>
</g>
</svg>
