<?xml version="1.0" standalone="no"?>
<!DOCTYPE svg PUBLIC "-//W3C//DTD SVG 20010904//EN"
 "http://www.w3.org/TR/2001/REC-SVG-20010904/DTD/svg10.dtd">
<svg version="1.0" xmlns="http://www.w3.org/2000/svg"
 width="512.000000pt" height="512.000000pt" viewBox="0 0 512.000000 512.000000"
 preserveAspectRatio="xMidYMid meet">

<g transform="translate(0.000000,512.000000) scale(0.100000,-0.100000)"
fill="#000000" stroke="none">
<path d="M2235 4985 c-24 -23 -25 -29 -25 -163 0 -121 2 -141 18 -155 43 -39
133 -28 149 17 10 29 11 223 1 267 -13 61 -97 81 -143 34z"/>
<path d="M2460 4990 c-18 -18 -20 -33 -20 -169 0 -164 1 -168 63 -178 22 -3
45 1 65 11 l32 17 0 154 0 154 -30 16 c-40 21 -86 19 -110 -5z"/>
<path d="M2688 4994 l-28 -15 0 -153 c0 -111 3 -156 13 -164 25 -21 83 -24
116 -8 l31 17 0 153 c0 135 -2 155 -18 169 -23 21 -78 21 -114 1z"/>
<path d="M2005 4963 c-27 -14 -78 -48 -112 -75 -159 -126 -250 -271 -334 -535
-21 -66 -39 -200 -45 -341 -9 -180 -15 -172 142 -172 62 0 119 3 128 6 13 5
16 26 16 128 1 145 16 214 70 321 40 81 125 182 188 224 l32 22 0 225 c0 255
5 244 -85 197z"/>
<path d="M2960 4978 c-1 -7 0 -109 0 -227 1 -207 2 -215 22 -229 108 -76 191
-188 232 -314 23 -69 39 -216 32 -289 l-6 -68 46 -7 c46 -7 220 2 236 12 13 8
9 220 -7 339 -23 176 -90 363 -171 483 -89 131 -213 243 -327 295 -45 20 -57
21 -57 5z"/>
<path d="M2365 4506 c-107 -34 -168 -70 -244 -141 -126 -119 -186 -274 -178
-454 7 -132 14 -162 58 -251 96 -191 319 -330 529 -330 235 0 472 168 564 400
26 68 29 86 30 195 0 106 -3 129 -27 199 -68 195 -232 345 -427 392 -87 21
-223 16 -305 -10z"/>
<path d="M3376 3683 c-66 -2 -125 -8 -132 -14 -6 -5 -14 -22 -17 -37 -3 -15
-19 -45 -36 -67 -17 -22 -37 -47 -44 -56 -29 -39 -130 -145 -147 -154 -32 -18
-83 -66 -77 -72 6 -6 93 24 157 55 48 23 142 87 165 112 42 47 46 8 10 -106
-30 -94 -47 -131 -91 -199 -34 -52 -120 -144 -170 -183 -44 -34 -152 -86 -219
-106 -33 -10 -71 -21 -85 -25 l-25 -8 0 -219 0 -219 50 3 c60 4 240 63 310
101 187 103 333 263 404 444 6 15 15 37 20 50 55 130 80 274 88 485 5 169 -2
224 -29 220 -7 -1 -67 -4 -132 -5z"/>
<path d="M1514 3669 c-14 -23 -16 -187 -4 -309 20 -213 83 -421 163 -542 12
-18 28 -45 36 -60 38 -74 241 -246 330 -280 14 -5 39 -16 56 -23 65 -30 183
-64 235 -67 l55 -3 0 219 0 220 -35 8 c-168 41 -264 92 -370 198 -108 109
-155 189 -196 340 -26 92 -20 115 17 78 28 -26 132 -97 169 -115 47 -21 110
-43 127 -43 9 0 -34 49 -99 113 -87 84 -127 132 -163 195 l-48 82 -133 0 c-87
0 -135 -4 -140 -11z"/>
<path d="M3165 2111 c-56 -26 -93 -69 -96 -111 -5 -88 0 -105 44 -149 23 -24
59 -51 80 -62 94 -49 175 -109 191 -143 28 -60 4 -105 -71 -131 -48 -17 -86
-13 -145 15 -36 17 -52 31 -65 61 -9 21 -20 39 -25 39 -4 0 -8 -29 -8 -65 l0
-65 38 0 c20 0 55 -7 77 -15 92 -33 211 -1 255 69 44 72 12 202 -57 237 -109
55 -204 114 -231 144 -42 45 -41 78 2 121 30 30 40 34 88 34 69 0 125 -37 159
-104 12 -25 24 -44 26 -43 1 2 -1 37 -5 78 -7 69 -9 74 -30 72 -13 -2 -35 3
-50 11 -49 25 -132 29 -177 7z"/>
<path d="M1042 2113 c-17 -7 -5 -23 18 -23 37 0 40 -30 38 -302 l-3 -263 -32
-15 c-18 -8 -33 -19 -33 -24 0 -12 439 1 454 13 15 13 42 89 33 97 -3 3 -21
-12 -40 -33 l-35 -38 -119 -3 c-96 -3 -121 -1 -131 11 -9 10 -12 51 -10 138
l3 124 84 3 c68 2 90 -1 122 -17 l39 -21 0 55 c0 58 -7 68 -28 35 -12 -19 -21
-20 -115 -18 l-102 3 -3 114 c-1 63 1 118 6 123 13 13 195 20 224 9 15 -5 37
-22 51 -37 l26 -27 -6 44 c-3 24 -8 46 -10 49 -6 7 -414 10 -431 3z"/>
<path d="M2050 2112 c-15 -5 -2 -22 17 -22 39 0 42 -25 43 -296 0 -245 -1
-262 -19 -278 -15 -14 -24 -15 -40 -6 -12 6 -21 17 -21 24 0 18 -33 46 -53 46
-20 0 -34 -47 -20 -69 27 -43 108 -51 156 -15 63 47 77 110 77 356 0 108 3
204 6 213 4 9 18 21 33 26 21 9 23 12 11 19 -15 8 -167 9 -190 2z"/>
<path d="M2345 2109 c-20 -4 -23 -7 -9 -8 11 0 29 -7 39 -15 18 -13 20 -32 25
-248 l6 -234 32 -45 c41 -57 87 -79 179 -86 82 -7 142 10 194 54 55 47 62 77
66 303 2 113 9 217 14 231 7 19 20 29 42 33 50 10 14 25 -63 25 -79 0 -106
-12 -62 -27 27 -9 31 -17 38 -58 12 -82 -2 -397 -19 -430 -32 -61 -92 -94
-172 -94 -82 0 -136 30 -161 89 -17 40 -20 440 -4 471 5 10 22 21 37 25 21 5
24 8 12 16 -16 10 -148 9 -194 -2z"/>
<path d="M3593 2110 c-18 -7 -23 -17 -23 -44 0 -41 15 -55 29 -27 14 25 62 41
123 41 43 0 50 -3 58 -25 12 -32 2 -513 -11 -537 -5 -10 -17 -18 -25 -18 -8 0
-13 -4 -10 -8 7 -12 196 -14 196 -2 0 6 -8 10 -18 10 -10 0 -25 13 -35 29 -15
25 -17 61 -17 279 0 211 2 252 15 262 23 19 131 7 166 -19 37 -28 39 -27 39
14 0 29 -5 37 -26 45 -32 12 -431 12 -461 0z"/>
<path d="M1640 1715 c-24 -28 2 -36 116 -33 101 3 109 4 109 23 0 19 -8 20
-106 23 -87 3 -108 0 -119 -13z"/>
</g>
</svg>
