<?xml version="1.0" standalone="no"?>
<!DOCTYPE svg PUBLIC "-//W3C//DTD SVG 20010904//EN"
 "http://www.w3.org/TR/2001/REC-SVG-20010904/DTD/svg10.dtd">
<svg version="1.0" xmlns="http://www.w3.org/2000/svg"
 width="942.000000pt" height="1406.000000pt" viewBox="0 0 942.000000 1406.000000"
 preserveAspectRatio="xMidYMid meet">

<g transform="translate(0.000000,1406.000000) scale(0.100000,-0.100000)"
fill="#000000" stroke="none">
<path d="M3418 14052 c-1 -5 -55 -26 -118 -46 -145 -47 -298 -122 -372 -180
-89 -71 -174 -190 -202 -283 -9 -28 4 -29 104 -8 171 36 325 120 456 250 68
68 99 106 122 155 39 83 47 120 28 120 -8 0 -16 -4 -18 -8z"/>
<path d="M2512 13820 c-113 -62 -160 -97 -242 -179 -77 -78 -135 -172 -166
-268 -9 -26 -18 -104 -21 -172 -5 -101 -9 -127 -24 -142 -10 -10 -82 -66 -159
-124 -127 -95 -170 -120 -170 -97 0 20 22 190 39 302 11 69 22 153 25 187 5
56 3 64 -16 78 -50 35 -60 25 -151 -142 -180 -333 -227 -446 -227 -542 0 -44
6 -67 23 -92 25 -38 97 -79 139 -79 15 0 30 -5 33 -10 7 -11 -222 -331 -242
-337 -7 -3 -48 106 -110 292 -70 213 -102 295 -112 293 -25 -5 -152 -341 -172
-453 -31 -179 26 -362 159 -507 46 -51 62 -79 62 -110 0 -37 -93 -318 -105
-318 -6 0 -98 126 -204 280 -106 154 -196 278 -200 276 -20 -12 -51 -236 -51
-364 0 -165 45 -321 123 -424 23 -31 81 -93 129 -138 60 -55 95 -98 114 -135
34 -71 42 -162 20 -236 -25 -86 -31 -90 -67 -49 -192 217 -226 247 -402 354
-79 48 -109 61 -113 51 -7 -18 66 -286 106 -390 84 -217 190 -339 376 -430 93
-46 179 -126 219 -204 23 -45 95 -239 95 -256 0 -14 -52 9 -385 174 -362 180
-385 188 -385 142 0 -16 177 -270 263 -376 204 -253 387 -363 639 -385 68 -5
95 -12 122 -31 49 -33 230 -309 214 -325 -4 -3 -33 0 -65 8 -32 9 -211 55
-398 102 -186 48 -342 89 -346 92 -11 7 -39 -25 -39 -45 0 -28 114 -135 286
-267 178 -137 264 -221 318 -314 30 -51 76 -163 76 -185 0 -22 -51 26 -250
238 -123 130 -227 237 -230 237 -4 0 -15 -9 -26 -21 -19 -21 -18 -22 59 -170
54 -104 74 -151 65 -154 -7 -2 -33 -6 -58 -7 l-45 -3 104 -68 c57 -37 100 -71
97 -75 -4 -3 -93 -29 -199 -58 l-192 -51 2 -38 c2 -21 7 -41 12 -44 16 -10
587 22 729 40 95 13 112 9 112 -25 0 -20 -26 -41 -155 -125 -85 -56 -157 -106
-160 -111 -10 -16 265 -12 400 5 140 18 278 55 349 93 59 31 159 126 154 145
-4 11 -226 131 -610 329 -76 38 -138 75 -138 80 0 7 49 8 143 3 109 -5 170 -3
261 10 126 17 161 15 215 -16 18 -11 36 -17 40 -14 3 3 -23 63 -58 132 l-63
126 18 61 c15 47 19 92 19 201 0 170 -14 221 -140 509 -45 105 -90 214 -100
243 -16 53 -37 69 -69 57 -9 -3 -18 -16 -21 -28 -4 -18 -18 -199 -52 -684 -3
-45 -10 -85 -14 -87 -17 -11 -229 336 -229 374 0 13 23 73 50 133 96 206 119
368 100 698 -14 236 -20 282 -36 272 -6 -4 -37 -46 -68 -94 -114 -175 -179
-361 -201 -571 -4 -38 -12 -66 -17 -65 -14 5 -78 156 -124 292 -50 150 -47
165 53 260 144 134 198 246 279 568 24 97 58 216 75 264 l32 87 -24 18 c-13
10 -31 19 -39 19 -9 0 -109 -143 -239 -340 -123 -187 -227 -340 -232 -340 -15
0 -14 204 2 329 17 140 23 147 524 681 121 130 228 245 238 257 19 21 18 22
-14 62 -18 23 -36 41 -41 41 -8 0 -79 -53 -452 -338 -81 -62 -150 -111 -153
-108 -3 3 8 38 25 78 16 40 42 103 57 141 15 37 40 85 56 107 26 35 122 110
142 110 18 0 171 82 239 129 111 75 498 400 498 417 0 7 -8 22 -19 35 l-19 23
-303 -137 c-167 -75 -310 -137 -316 -137 -21 0 -15 13 34 80 103 142 196 204
353 235 155 31 266 74 512 198 l243 123 -2 33 c-3 65 0 65 -331 -3 -167 -34
-306 -58 -309 -53 -3 4 -3 10 -2 11 25 18 235 129 265 140 47 16 163 31 354
46 213 16 359 40 490 79 130 39 144 48 133 90 -5 21 -8 21 -384 21 -270 0
-379 3 -379 11 0 6 32 44 72 85 39 41 67 74 62 74 -5 0 -51 -23 -103 -50 -52
-28 -98 -47 -102 -43 -3 5 26 107 66 228 40 121 70 223 68 228 -7 12 -14 9
-91 -33z"/>
<path d="M4815 12809 c-775 -34 -1461 -181 -2079 -445 -229 -98 -265 -120
-302 -181 -17 -29 -34 -70 -38 -90 -9 -60 -7 -838 4 -1068 35 -753 134 -1489
285 -2129 25 -104 32 -190 18 -199 -5 -3 -98 94 -208 215 -245 268 -238 262
-264 253 -26 -8 -27 -33 -6 -130 9 -39 22 -106 31 -150 8 -44 28 -147 45 -228
16 -82 29 -153 29 -158 0 -5 -18 -18 -39 -29 -25 -12 -41 -28 -43 -42 -2 -13
-8 -22 -13 -22 -6 1 -77 14 -158 30 -147 28 -149 28 -163 9 -8 -10 -13 -24
-11 -29 2 -6 118 -63 257 -128 239 -111 300 -146 300 -173 0 -6 -103 -70 -230
-141 -126 -71 -230 -134 -230 -140 0 -7 18 -28 39 -47 38 -34 42 -35 98 -30
287 26 507 187 663 486 14 26 29 46 35 44 5 -2 31 -54 59 -115 44 -102 51
-112 75 -112 37 1 142 27 154 39 10 10 -99 466 -324 1359 -60 237 -110 435
-110 440 -5 32 -18 32 1219 30 l1217 -3 3 -891 c2 -697 5 -894 15 -902 12 -10
76 -28 512 -151 138 -38 331 -92 430 -120 99 -28 212 -59 250 -70 39 -10 115
-30 170 -45 447 -121 432 -118 476 -106 22 6 58 27 79 46 35 32 44 52 89 187
188 579 249 843 367 1602 29 193 58 377 64 410 5 33 10 70 10 83 l0 22 -1218
0 c-934 0 -1221 3 -1230 12 -7 7 -12 44 -12 95 l0 83 -1235 0 c-980 0 -1236 3
-1239 13 -7 22 -46 938 -52 1227 -13 581 9 637 293 751 553 222 1376 369 2003
357 196 -3 213 -5 226 -23 12 -16 14 -189 14 -1150 0 -621 0 -1138 0 -1148 0
-16 64 -17 1238 -15 l1237 3 3 858 c2 825 1 859 -17 895 -10 20 -27 44 -37 53
-11 9 -129 63 -264 119 -707 295 -804 317 -1927 436 -89 10 -167 20 -172 23
-5 4 -15 56 -21 116 -7 61 -14 113 -17 118 -5 8 -95 7 -348 -4z m1715 -704 c0
-20 151 -909 156 -917 4 -6 38 49 75 121 38 71 74 133 79 136 11 7 36 -46 70
-150 56 -173 74 -182 272 -140 74 16 92 17 128 6 58 -17 90 -51 90 -96 0 -31
-5 -39 -47 -66 -44 -28 -53 -30 -108 -25 -33 3 -130 21 -215 41 -85 20 -173
39 -196 42 l-41 5 -49 -143 c-46 -135 -51 -144 -76 -147 -31 -4 -31 -5 -73
203 -42 207 -75 357 -81 367 -7 10 -31 11 -38 0 -2 -4 -30 -194 -61 -422 -30
-228 -58 -421 -60 -427 -2 -7 -20 -13 -39 -13 -29 0 -37 4 -41 23 -6 24 -155
760 -155 764 0 2 -4 3 -9 3 -4 0 -25 -42 -46 -92 -21 -51 -47 -103 -60 -116
-12 -13 -46 -30 -77 -37 -60 -16 -252 -35 -356 -35 -59 0 -66 3 -93 31 -58 62
-48 108 34 161 45 29 52 31 81 19 52 -22 148 -40 206 -41 115 0 159 54 186
230 14 96 65 279 99 358 11 26 20 32 43 32 16 0 34 -6 40 -12 5 -7 31 -139 58
-293 45 -266 61 -322 84 -299 5 5 37 207 70 449 34 242 65 450 70 463 7 17 18
22 45 22 19 0 35 -2 35 -5z m408 -2607 l3 -98 -149 0 c-108 0 -152 -3 -159
-12 -14 -18 -47 -574 -40 -663 12 -135 43 -176 138 -183 60 -4 60 -4 102 39
23 25 47 60 52 79 7 25 17 36 33 38 18 3 22 -1 22 -25 0 -44 -39 -173 -65
-219 -56 -95 -142 -139 -257 -132 -83 5 -122 22 -172 74 -52 53 -66 107 -66
248 0 113 42 645 56 710 4 19 2 31 -7 37 -8 5 -67 9 -131 9 -141 0 -148 -4
-148 -90 0 -93 -29 -413 -50 -559 -49 -331 -104 -431 -235 -431 -114 0 -175
90 -131 194 8 19 40 71 72 117 83 122 141 249 169 376 27 120 58 370 48 386
-8 14 -156 0 -201 -19 -45 -19 -73 -44 -124 -111 -29 -40 -45 -53 -64 -53 -24
0 -25 3 -19 28 16 65 72 180 114 236 52 69 104 102 182 115 30 5 272 8 539 7
l485 -1 3 -97z"/>
<path d="M3565 12109 c-88 -22 -106 -80 -59 -192 24 -56 26 -70 21 -152 -6
-101 -43 -216 -272 -840 -102 -277 -118 -329 -119 -385 -2 -106 39 -147 165
-169 79 -13 668 -14 945 -1 164 7 198 12 238 30 78 37 109 113 86 212 -7 29
-69 192 -138 363 -245 612 -282 727 -269 849 3 28 19 80 36 116 44 92 40 124
-22 157 -28 16 -66 18 -302 20 -148 1 -288 -3 -310 -8z m510 -89 c3 -5 1 -45
-5 -89 -20 -149 12 -308 111 -548 155 -377 177 -433 197 -507 12 -43 19 -83
16 -87 -10 -17 -64 21 -70 49 -34 156 -105 246 -227 289 -46 16 -84 18 -349
15 -274 -3 -298 -1 -298 14 0 14 88 304 120 394 5 14 32 98 60 187 44 139 54
164 73 167 12 3 57 10 101 16 90 12 96 14 96 40 0 21 -11 25 -103 35 -32 4
-75 13 -95 20 -33 12 -16 14 165 14 122 1 204 -3 208 -9z"/>
<path d="M8544 10219 c-63 -24 -110 -69 -140 -134 -19 -40 -24 -66 -23 -135 0
-98 13 -141 58 -197 42 -52 98 -83 151 -83 78 0 130 82 118 186 -3 33 -14 34
-119 21 -48 -6 -58 -4 -77 14 l-22 20 32 60 c18 34 45 74 59 89 23 25 31 28
70 23 82 -9 198 -45 251 -76 42 -26 59 -43 82 -89 39 -78 41 -186 6 -268 -36
-85 -106 -185 -163 -234 -193 -164 -433 -205 -741 -127 -143 37 -175 35 -209
-11 -21 -29 -73 -219 -84 -308 -6 -51 -5 -54 10 -41 10 7 24 39 33 70 52 192
84 212 279 184 87 -12 159 -14 341 -9 127 3 234 3 237 -1 7 -7 -21 -43 -33
-43 -12 0 -494 -220 -504 -230 -13 -13 38 -83 98 -136 128 -112 278 -159 586
-184 228 -19 275 -25 274 -35 -2 -18 -207 -114 -289 -135 -102 -27 -273 -29
-400 -5 -49 9 -178 38 -286 65 -233 58 -299 67 -367 50 -89 -21 -137 -88 -191
-266 -16 -55 -36 -117 -44 -140 -17 -47 -9 -94 64 -348 80 -282 88 -302 113
-314 38 -17 301 39 364 78 75 46 92 144 51 302 -30 118 -93 234 -235 429 -39
54 -36 60 40 78 150 37 151 37 476 -26 205 -40 354 -48 450 -24 137 33 283
134 363 250 43 63 90 162 80 171 -4 5 -37 1 -73 -7 -36 -8 -126 -17 -200 -20
-159 -6 -235 8 -346 63 -70 34 -184 118 -191 140 -2 7 18 24 44 39 26 16 120
75 207 133 291 191 393 331 428 585 11 88 -1 230 -28 313 -38 119 -148 223
-280 264 -90 27 -247 27 -320 -1z"/>
<path d="M3597 9757 c-12 -8 -20 -33 -25 -76 l-7 -64 -43 -16 -42 -15 -43 42
c-23 23 -48 42 -55 42 -19 0 -72 -42 -72 -57 0 -8 11 -36 25 -63 14 -27 25
-54 25 -59 0 -5 -13 -23 -28 -39 -31 -33 -26 -32 -138 -7 -17 4 -25 -3 -38
-29 -25 -52 -20 -63 40 -101 55 -35 56 -37 49 -73 -8 -47 -10 -48 -75 -70
l-55 -19 0 -49 0 -49 68 -5 c72 -5 91 -18 104 -68 4 -18 -4 -33 -36 -66 -47
-47 -50 -62 -20 -100 25 -32 37 -32 99 -1 27 14 53 25 58 25 4 0 22 -12 40
-27 l33 -28 -14 -62 c-8 -34 -12 -65 -8 -68 7 -8 70 -35 81 -35 4 0 24 25 44
55 34 51 39 55 76 55 45 0 60 -16 81 -87 13 -48 28 -56 79 -45 l35 8 5 66 c3
37 7 69 10 71 3 3 22 12 42 20 l38 16 52 -45 c28 -24 54 -44 57 -44 3 0 22 14
41 30 l35 29 -27 53 c-34 66 -35 76 -3 111 29 30 43 32 99 12 45 -16 64 -11
77 21 11 31 27 30 40 -2 14 -40 -13 -78 -49 -69 -74 18 -80 18 -92 -5 -10 -19
-8 -26 21 -56 32 -33 33 -36 18 -62 -10 -19 -25 -29 -48 -32 -66 -10 -67 -66
-2 -82 20 -6 36 -19 44 -35 10 -24 8 -28 -26 -57 -36 -30 -38 -34 -26 -59 14
-30 22 -32 68 -16 29 10 35 9 54 -9 20 -21 20 -22 2 -61 -14 -33 -15 -43 -5
-56 19 -23 54 -18 78 10 39 44 78 31 88 -31 10 -66 66 -74 80 -11 3 18 11 38
16 45 19 22 55 13 82 -20 23 -29 27 -31 51 -20 25 12 26 15 20 61 -6 43 -4 51
16 64 19 14 26 14 55 2 27 -11 35 -11 53 1 28 20 27 30 -9 71 -16 18 -30 38
-30 43 0 18 40 50 63 50 33 0 49 14 45 40 -3 23 -10 29 -60 49 -39 15 -38 54
2 88 33 28 36 39 15 67 -13 18 -18 18 -55 6 -36 -12 -43 -12 -57 3 -15 15 -16
23 -5 63 10 35 10 50 1 60 -17 21 -43 17 -69 -11 -39 -42 -90 -28 -90 24 0 30
-9 45 -31 53 -23 9 -41 -6 -53 -43 -6 -17 -21 -38 -33 -46 -20 -14 -24 -12
-58 21 -29 30 -39 34 -59 27 -19 -8 -34 -2 -84 31 -54 36 -62 44 -62 72 0 45
17 62 80 83 l55 18 -1 43 c0 23 -3 45 -7 48 -3 3 -36 9 -72 12 -60 4 -67 7
-80 33 -23 44 -18 60 31 110 l46 47 -35 38 -35 39 -54 -28 c-64 -33 -75 -33
-113 -3 -29 23 -29 24 -17 75 17 73 16 79 -18 96 -46 24 -62 18 -101 -38 -33
-49 -38 -52 -73 -50 -46 3 -62 15 -70 51 -16 67 -27 82 -60 82 -18 0 -40 -6
-49 -13z"/>
<path d="M0 9530 c0 -27 4 -50 9 -50 5 0 11 -21 15 -47 9 -68 48 -146 87 -175
38 -28 108 -48 166 -48 79 0 76 9 -63 155 -71 75 -144 154 -162 176 -19 21
-38 39 -43 39 -5 0 -9 -22 -9 -50z"/>
<path d="M506 9463 c-11 -37 -75 -330 -86 -396 -7 -37 -16 -69 -20 -72 -5 -3
-82 12 -172 34 -89 22 -164 38 -167 36 -9 -10 84 -137 137 -187 93 -88 197
-127 394 -148 53 -5 101 -12 109 -15 19 -7 54 -94 43 -105 -5 -5 -85 -12 -178
-17 -113 -5 -171 -12 -173 -20 -6 -16 129 -119 207 -158 127 -63 234 -70 335
-20 86 42 85 33 20 228 -32 94 -73 205 -91 245 -54 118 -163 259 -183 236 -5
-5 -3 -65 5 -134 7 -69 13 -136 13 -150 0 -46 -27 32 -64 188 -83 342 -115
465 -119 469 -2 3 -7 -4 -10 -14z"/>
<path d="M3680 8054 c-19 -2 -91 -9 -160 -14 -292 -25 -635 -95 -843 -171
-249 -92 -458 -230 -563 -372 -60 -81 -63 -109 -24 -204 60 -144 71 -224 80
-563 5 -237 11 -316 23 -355 16 -50 59 -101 104 -124 43 -22 143 -49 149 -40
3 5 -9 29 -26 55 -47 68 -88 164 -99 233 -35 216 108 381 424 489 319 110 607
145 1175 145 643 -1 1226 -72 1868 -229 387 -95 667 -184 1202 -384 271 -101
488 -173 578 -190 77 -15 196 -9 238 13 71 37 129 117 170 237 38 109 46 165
34 250 -19 138 16 240 124 357 76 82 99 118 156 245 l44 98 -24 25 c-13 14
-29 25 -35 25 -6 0 -24 -27 -40 -60 -74 -154 -209 -230 -410 -230 -179 1 -324
33 -559 125 -844 330 -1757 539 -2706 621 -171 14 -798 27 -880 18z"/>
<path d="M3545 7034 c-64 -16 -115 -37 -115 -48 0 -17 113 -217 187 -330 350
-536 948 -1121 1334 -1306 94 -45 180 -71 198 -61 6 4 19 32 30 62 39 113 46
121 256 264 188 128 511 425 679 625 130 154 286 372 286 399 0 12 -20 18
-235 65 -88 20 -351 79 -584 131 -234 52 -428 95 -433 95 -4 0 -8 -322 -8
-715 0 -588 -2 -717 -13 -721 -26 -10 -154 76 -302 204 -383 329 -720 710
-1012 1142 -116 171 -137 192 -200 196 -26 1 -57 0 -68 -2z"/>
<path d="M2997 6944 c-233 -56 -408 -127 -481 -194 -171 -157 -106 -394 117
-430 78 -12 148 4 261 59 121 60 161 71 246 71 106 0 173 -24 511 -180 84 -39
156 -69 161 -68 4 2 -42 73 -103 158 -61 85 -146 207 -189 270 -134 200 -210
283 -287 316 -41 18 -160 17 -236 -2z"/>
<path d="M2851 5679 c-199 -39 -437 -179 -556 -327 -55 -69 -122 -199 -109
-212 5 -5 26 -3 49 6 68 23 215 52 333 65 116 13 258 4 372 -23 59 -14 201
-81 224 -106 18 -20 17 -21 -22 -41 -22 -11 -102 -48 -179 -82 -286 -126 -422
-207 -495 -295 -51 -61 -112 -189 -128 -269 -31 -148 -5 -349 59 -461 105
-182 353 -328 595 -350 92 -8 173 7 264 51 130 61 207 162 227 297 15 102 -34
272 -91 317 -68 53 -263 87 -369 64 -49 -11 -98 -70 -120 -148 -14 -48 -14
-57 -1 -90 9 -20 29 -54 46 -75 35 -45 143 -120 171 -120 24 0 151 63 167 83
9 10 10 22 3 40 -10 25 -24 32 -168 83 -69 24 -84 55 -43 84 34 24 110 59 128
60 20 0 122 -101 143 -142 86 -168 -154 -411 -377 -383 -208 25 -354 144 -400
325 -31 121 -3 239 87 371 126 184 285 301 479 354 84 23 344 32 449 16 226
-35 354 -69 756 -201 149 -49 291 -94 318 -101 67 -16 156 -8 193 18 31 22 40
38 92 153 79 176 213 286 495 405 163 70 228 154 231 300 2 126 0 127 -95 45
-104 -90 -209 -155 -301 -187 -62 -22 -85 -25 -169 -21 -87 3 -104 7 -170 40
-41 20 -98 57 -127 82 -56 48 -79 58 -67 29 37 -92 107 -299 121 -354 31 -127
5 -269 -60 -329 -25 -23 -36 -25 -114 -25 -86 0 -90 1 -252 72 -199 86 -345
135 -488 165 -200 42 -527 27 -727 -32 -16 -5 -49 -11 -71 -15 -34 -5 -43 -3
-48 11 -9 22 8 37 64 57 304 107 389 141 379 153 -17 21 -190 121 -291 168
-178 84 -331 124 -508 133 -89 5 -118 10 -127 22 -29 37 -16 51 101 107 111
53 118 55 238 65 139 12 331 5 458 -17 128 -22 243 -55 610 -177 295 -97 343
-111 405 -111 122 -1 157 34 170 170 6 60 5 72 -9 77 -26 10 -41 -1 -63 -46
-11 -24 -33 -58 -49 -76 -48 -58 -66 -54 -697 162 -252 87 -480 148 -620 167
-92 12 -253 12 -316 -1z"/>
<path d="M658 3489 c-260 -27 -482 -197 -570 -435 -29 -78 -32 -279 -6 -364
44 -141 163 -280 340 -398 58 -39 225 -139 369 -223 314 -180 358 -210 425
-281 62 -65 98 -133 115 -215 38 -184 -99 -372 -312 -428 -128 -34 -339 -13
-472 48 -205 94 -308 228 -368 479 -32 135 -34 140 -67 136 l-27 -3 -2 -400
c-2 -220 1 -406 6 -414 6 -9 18 -11 34 -7 19 4 27 16 36 50 13 53 50 86 96 86
29 0 99 -19 305 -81 228 -69 466 -69 651 1 207 77 377 262 424 462 19 81 19
216 0 297 -28 118 -114 252 -215 337 -75 62 -193 135 -458 283 -296 165 -437
257 -516 341 -77 81 -101 135 -100 230 0 97 34 170 115 244 91 84 174 116 309
116 91 0 141 -11 240 -50 216 -87 352 -269 399 -535 15 -82 22 -99 45 -103 45
-9 46 -3 46 414 0 344 -2 395 -16 408 -18 19 -20 19 -43 6 -10 -5 -21 -23 -25
-40 -3 -17 -20 -45 -36 -62 -29 -28 -35 -30 -83 -25 -29 3 -95 23 -148 45
-118 48 -203 71 -318 83 -47 5 -88 8 -91 7 -3 0 -39 -4 -82 -9z"/>
<path d="M1985 3418 c-5 -25 -25 -410 -25 -490 0 -47 1 -48 30 -48 34 0 32 -2
50 90 22 121 98 233 187 279 57 28 170 41 373 41 153 0 179 -2 184 -16 11 -28
7 -1843 -4 -1939 -13 -111 -33 -151 -94 -189 -41 -26 -60 -30 -137 -34 -73 -4
-91 -8 -99 -23 -6 -9 -7 -25 -4 -33 5 -14 61 -16 509 -16 482 0 504 1 510 19
13 41 -2 49 -94 53 -118 4 -176 33 -211 103 l-25 50 0 1010 0 1010 220 0 c244
-1 300 -10 381 -66 82 -56 125 -128 154 -259 16 -74 17 -75 49 -78 l33 -3 -7
188 c-4 103 -10 229 -14 278 l-6 90 -977 3 -978 2 -5 -22z"/>
<path d="M4142 3408 l3 -33 95 -6 c158 -9 210 -51 230 -185 13 -95 13 -1808
-1 -1893 -5 -35 -19 -77 -30 -93 -35 -48 -112 -80 -209 -87 l-85 -6 0 -30 0
-30 917 -3 c894 -2 917 -2 927 17 20 36 199 566 194 573 -2 5 -17 8 -33 8 -26
0 -35 -10 -84 -94 -109 -185 -215 -295 -326 -337 -76 -29 -250 -41 -545 -37
-293 3 -308 6 -349 61 -21 28 -21 37 -21 510 l0 482 330 0 c354 0 370 -2 448
-53 54 -36 83 -93 102 -197 8 -49 19 -93 24 -98 5 -5 19 -7 32 -5 l24 3 0 415
0 415 -30 0 c-29 0 -30 -1 -42 -72 -24 -143 -78 -221 -173 -251 -47 -15 -102
-17 -385 -17 l-330 0 0 470 0 470 360 3 c375 3 486 -4 558 -36 86 -39 139
-118 177 -266 11 -42 22 -81 25 -86 10 -15 55 -12 61 5 3 8 0 126 -8 262 l-13
248 -923 3 -923 2 3 -32z"/>
<path d="M6342 3408 l3 -33 70 -6 c85 -8 166 -41 200 -81 57 -67 56 -50 53
-1084 l-3 -949 -27 -47 c-38 -64 -96 -92 -206 -96 -69 -3 -84 -7 -93 -24 -7
-14 -7 -23 2 -34 10 -12 73 -14 418 -12 l406 3 0 30 0 30 -90 6 c-99 6 -115
11 -163 46 -50 37 -63 73 -72 201 -14 175 -13 1665 1 1660 6 -2 60 -111 121
-243 60 -132 169 -370 243 -530 73 -159 210 -459 305 -665 95 -206 189 -412
210 -457 34 -72 42 -83 64 -83 15 0 31 9 40 22 13 20 119 250 386 833 45 99
131 286 190 415 120 262 136 297 240 525 40 88 79 169 87 180 11 17 13 -113
10 -860 -3 -975 0 -930 -69 -989 -48 -41 -97 -56 -186 -56 -68 0 -72 -1 -78
-24 -3 -14 -3 -30 1 -35 4 -8 167 -11 511 -11 l504 0 0 34 0 34 -92 4 c-135 6
-195 41 -225 132 -16 46 -18 135 -21 927 -2 485 1 916 6 966 12 115 33 158 97
198 43 27 59 30 142 33 l93 4 0 34 0 34 -332 0 c-183 0 -338 -4 -344 -8 -5 -4
-17 -23 -26 -42 -9 -19 -63 -138 -121 -265 -58 -126 -116 -255 -130 -285 -14
-30 -59 -129 -100 -220 -42 -91 -163 -358 -271 -595 -108 -236 -201 -431 -209
-433 -8 -2 -55 90 -129 250 -156 337 -505 1090 -557 1203 -24 50 -74 159 -113
243 l-71 152 -339 0 -339 0 3 -32z"/>
<path d="M3780 914 c-104 -20 -174 -57 -245 -129 -105 -106 -152 -231 -142
-383 7 -115 51 -205 141 -290 94 -88 144 -105 323 -110 149 -4 211 6 295 49
l38 19 0 165 c0 90 4 175 10 189 9 24 24 34 74 50 41 14 -1 19 -156 20 -118 0
-163 -3 -166 -12 -2 -7 5 -12 17 -12 34 0 69 -21 81 -49 6 -16 9 -85 8 -181
l-3 -155 -40 -20 c-26 -13 -67 -21 -117 -23 -66 -4 -84 -1 -135 22 -106 49
-176 142 -208 278 -48 203 28 424 169 493 155 76 329 23 402 -123 18 -35 35
-66 38 -70 16 -15 22 22 15 85 -5 38 -8 91 -8 120 -1 62 -16 75 -45 38 l-21
-27 -75 27 c-73 25 -195 39 -250 29z"/>
<path d="M2562 891 c-11 -7 -10 -10 3 -15 9 -3 27 -6 40 -6 12 0 33 -9 46 -19
l24 -19 0 -376 c0 -422 3 -404 -75 -415 -22 -3 -41 -10 -40 -16 0 -6 119 -10
337 -10 l338 0 37 100 c43 115 43 115 24 115 -8 0 -26 -20 -40 -44 -33 -56
-86 -102 -133 -115 -49 -14 -268 -14 -294 -1 -18 10 -19 23 -19 195 l0 185
123 0 c150 0 178 -12 196 -84 21 -86 31 -51 31 110 0 156 -8 185 -30 105 -18
-69 -35 -76 -186 -79 l-134 -4 0 177 0 177 159 -4 c183 -3 203 -11 231 -86 18
-48 39 -75 41 -52 4 53 -5 167 -13 178 -8 9 -87 12 -332 12 -176 0 -327 -4
-334 -9z"/>
<path d="M4325 890 c-3 -5 17 -21 45 -35 47 -24 60 -40 200 -253 l151 -227 -3
-148 c-3 -143 -4 -150 -27 -168 -13 -10 -38 -19 -57 -19 -24 0 -34 -5 -34 -15
0 -13 25 -15 183 -13 113 2 182 7 182 13 0 6 -16 11 -35 13 -19 2 -45 13 -57
24 -22 20 -23 29 -23 175 l0 153 121 193 c67 105 135 206 152 224 16 17 52 41
80 53 31 14 46 25 40 31 -13 13 -285 7 -289 -6 -2 -5 11 -17 28 -25 39 -19 53
-40 45 -71 -9 -36 -194 -324 -208 -324 -7 0 -59 72 -116 160 -127 197 -130
219 -30 249 10 3 15 10 12 16 -8 13 -352 14 -360 0z"/>
<path d="M5302 894 c-20 -9 -3 -24 28 -24 16 0 41 -11 57 -24 l28 -24 3 -319
c5 -433 2 -451 -77 -462 -23 -3 -42 -10 -41 -16 0 -6 67 -10 180 -10 113 0
180 4 180 10 1 6 -15 12 -35 15 -60 9 -72 28 -80 122 -3 45 -5 121 -3 168 l3
85 107 -4 c114 -3 159 6 216 45 115 77 131 251 33 352 -70 72 -122 85 -371 88
-118 2 -221 1 -228 -2z m412 -74 c131 -64 135 -281 6 -348 -37 -19 -54 -22
-99 -17 -30 3 -61 11 -68 17 -10 8 -13 51 -13 174 0 134 3 165 16 178 22 23
108 21 158 -4z"/>
<path d="M6066 883 c-10 -36 -11 -178 -1 -181 6 -2 16 14 23 36 7 21 27 52 43
68 29 28 34 29 127 29 l97 0 0 -377 c0 -425 3 -407 -77 -417 -24 -3 -42 -10
-40 -16 1 -6 70 -10 182 -10 112 0 181 4 183 10 1 6 -17 13 -41 16 -23 3 -48
11 -55 18 -9 9 -13 108 -17 380 -3 202 -3 376 -2 385 3 16 15 17 97 14 74 -2
99 -7 120 -23 30 -23 51 -57 60 -98 3 -16 11 -27 18 -24 15 5 10 175 -5 195
-8 9 -92 12 -359 12 -323 0 -348 -1 -353 -17z"/>
<path d="M1990 524 c-14 -2 -342 -8 -730 -15 -388 -6 -757 -14 -820 -19 -135
-8 -166 -7 520 -20 803 -15 1059 -20 1312 -26 l237 -6 6 25 c4 14 5 34 3 44
-3 17 -19 18 -253 19 -138 1 -261 0 -275 -2z"/>
<path d="M6920 486 l0 -48 258 6 c471 11 722 16 1322 27 327 5 596 11 598 13
9 9 -345 18 -1780 42 l-398 7 0 -47z"/>
</g>
</svg>
